# xmcd CD database file
#
# Track frame offsets:
#	150
#	9908
#	29763
#	44231
#	63546
#	78369
#	86462
#	100672
#	115637
#	128890
#	140995
#	157608
#	170318
#	185498
#	197038
#
# Disc length: 2843 seconds
#
# Revision: 1
# Processed by: cddbd v1.5.2PL0 Copyright (c) Steve Scherf et al.
# Submitted via: CDex 1.50Beta7
#
DISCID=c40b190f
DTITLE=The Amazing Brainboy - Busted Arse Blues
DYEAR=2007
DGENRE=Blues
TTITLE0=Mama taint long for Day
TTITLE1=Trev's Fucken Old Walkin' Blues
TTITLE2=Jean Harlow
TTITLE3=Waitress at the Hall St Cafe
TTITLE4=Stop Breaking Down Blues
TTITLE5=Guitar Rag
TTITLE6=I wish I could Sing
TTITLE7=Lay my Burden Down
TTITLE8=Worryin' Bob's Blues
TTITLE9=Bazz
TTITLE10=Can't be Satisfied
TTITLE11=Sunday by the Sea
TTITLE12=Desecration Blues
TTITLE13=Philthy and the Backpackers
TTITLE14=Brainboy's Generic Blues
EXTD=YEAR: 2007
EXTT0=
EXTT1=
EXTT2=
EXTT3=
EXTT4=
EXTT5=
EXTT6=
EXTT7=
EXTT8=
EXTT9=
EXTT10=
EXTT11=
EXTT12=
EXTT13=
EXTT14=
PLAYORDER=
